<svg width="601" height="560" viewBox="0 0 601 560" fill="none" xmlns="http://www.w3.org/2000/svg">
  <rect x="15" y="15" width="530" height="530" rx="65" fill="#262626" stroke="#B6B6B6" stroke-width="30"/>
  <path d="M176 422C176 422 176 387.089 176 380.919C176 374.749 176.672 371.141 178.218 367.316C179.764 363.49 182.07 359.219 185.004 356.281C187.937 353.342 191.437 351.008 195.299 349.415C199.161 347.821 203.308 347 207.497 347C211.686 347 215.833 347.821 219.695 349.415C223.558 351.008 227.058 353.342 229.99 356.281C232.923 359.219 235.23 363.49 236.776 367.316C238.322 371.141 239.076 376.804 238.994 380.919L238.994 422" stroke="#FBFBFB" stroke-width="9" stroke-linejoin="round"/>
  <path d="M147 284C147 284 147 318.911 147 325.081C147 331.251 146.328 334.859 144.782 338.684C143.236 342.51 140.93 346.781 137.996 349.719C135.063 352.658 131.563 354.992 127.701 356.585C123.839 358.179 119.692 359 115.503 359C111.314 359 107.167 358.179 103.305 356.585C99.4424 354.992 95.9425 352.658 93.0096 349.719C90.0766 346.781 87.7697 342.51 86.2238 338.684C84.6778 334.859 83.9239 329.196 84.0061 325.081V284" stroke="#FBFBFB" stroke-width="9" stroke-linejoin="round"/>
  <path d="M115 422V361" stroke="white" stroke-width="9" stroke-linecap="round" stroke-linejoin="round"/>
  <path d="M207 345V284" stroke="white" stroke-width="9" stroke-linecap="round" stroke-linejoin="round"/>
  <path d="M111.84 118.02C111.84 121.06 111.04 123.6 109.44 125.64C107.84 127.64 105.3 128.9 101.82 129.42V136.98H97.02V129.54C95.34 129.46 93.58 129.2 91.74 128.76C89.94 128.28 88.1 127.6 86.22 126.72L87.84 122.28C89.96 123.24 91.86 123.92 93.54 124.32C95.26 124.72 96.98 124.92 98.7 124.92C101.22 124.92 103.16 124.38 104.52 123.3C105.88 122.18 106.56 120.56 106.56 118.44C106.56 116.68 106.08 115.2 105.12 114C104.2 112.8 102.68 111.88 100.56 111.24L95.7 109.8C92.66 108.88 90.42 107.5 88.98 105.66C87.54 103.78 86.82 101.48 86.82 98.76C86.82 96.88 87.16 95.16 87.84 93.6C88.52 92 89.6 90.68 91.08 89.64C92.6 88.6 94.58 87.96 97.02 87.72V80.22H101.82V87.72C103.22 87.88 104.66 88.18 106.14 88.62C107.62 89.02 109.1 89.56 110.58 90.24L108.9 94.74C106.98 93.9 105.24 93.3 103.68 92.94C102.16 92.54 100.7 92.34 99.3 92.34C97.02 92.34 95.24 92.82 93.96 93.78C92.72 94.7 92.1 96.24 92.1 98.4C92.1 99.96 92.52 101.28 93.36 102.36C94.2 103.4 95.7 104.26 97.86 104.94L102.72 106.38C108.8 108.18 111.84 112.06 111.84 118.02Z" fill="#90E967"/>
  <path d="M299.15 336.55V340.15H287.3V296H299.15V299.6H291.4V336.55H299.15ZM358.452 296V340.15H346.602V336.55H354.352V299.6H346.602V296H358.452ZM383.437 333V329.5C381.704 331 380.154 332.05 378.787 332.65C377.42 333.217 376.054 333.5 374.687 333.5C372.487 333.5 370.804 332.783 369.637 331.35C368.47 329.883 367.887 327.833 367.887 325.2V308.25H371.987V324.6C371.987 326.333 372.287 327.617 372.887 328.45C373.52 329.25 374.454 329.65 375.687 329.65C376.62 329.65 377.67 329.417 378.837 328.95C380.004 328.483 381.454 327.55 383.187 326.15V308.25H387.287V333H383.437ZM409.117 311.85C407.617 311.85 406.15 312.117 404.717 312.65C403.317 313.183 401.817 314.2 400.217 315.7V333H396.117V308.25H400.017V312.25C401.717 310.583 403.267 309.417 404.667 308.75C406.1 308.083 407.583 307.75 409.117 307.75V311.85ZM434.476 322.1C434.476 325.567 433.61 328.333 431.876 330.4C430.143 332.467 427.593 333.5 424.226 333.5C420.893 333.5 417.593 332.617 414.326 330.85V296H418.426V311.6C419.926 310.2 421.293 309.217 422.526 308.65C423.793 308.05 425.076 307.75 426.376 307.75C428.976 307.75 430.976 308.75 432.376 310.75C433.776 312.75 434.476 315.567 434.476 319.2V322.1ZM425.376 311.6C424.443 311.6 423.443 311.85 422.376 312.35C421.343 312.85 420.026 313.883 418.426 315.45V328.55C420.393 329.383 422.243 329.8 423.976 329.8C426.21 329.8 427.81 329.117 428.776 327.75C429.743 326.35 430.226 324.467 430.226 322.1V319.2C430.226 316.6 429.826 314.683 429.026 313.45C428.226 312.217 427.01 311.6 425.376 311.6ZM461.664 319.1V322.1C461.664 325.633 460.747 328.417 458.914 330.45C457.114 332.483 454.531 333.5 451.164 333.5C447.831 333.5 445.247 332.483 443.414 330.45C441.581 328.417 440.664 325.633 440.664 322.1V319.1C440.664 315.633 441.564 312.883 443.364 310.85C445.197 308.783 447.797 307.75 451.164 307.75C454.531 307.75 457.114 308.783 458.914 310.85C460.747 312.883 461.664 315.633 461.664 319.1ZM457.414 319.1C457.414 316.733 456.881 314.883 455.814 313.55C454.747 312.183 453.197 311.5 451.164 311.5C449.164 311.5 447.614 312.183 446.514 313.55C445.447 314.883 444.914 316.733 444.914 319.1V322.1C444.914 324.567 445.447 326.467 446.514 327.8C447.614 329.133 449.164 329.8 451.164 329.8C453.197 329.8 454.747 329.133 455.814 327.8C456.881 326.467 457.414 324.567 457.414 322.1V319.1Z" fill="white"/>
  <path d="M310.824 303.1V299H334.974V303.1H325.074V333H320.724V303.1H310.824Z" fill="#4FC08D"/>
  <path d="M299.15 407.55V411.15H287.3V367H299.15V370.6H291.4V407.55H299.15ZM359.477 367V411.15H347.627V407.55H355.377V370.6H347.627V367H359.477ZM388.813 390.1V393.1C388.813 396.633 387.896 399.417 386.063 401.45C384.263 403.483 381.679 404.5 378.313 404.5C374.979 404.5 372.396 403.483 370.563 401.45C368.729 399.417 367.813 396.633 367.813 393.1V390.1C367.813 386.633 368.713 383.883 370.513 381.85C372.346 379.783 374.946 378.75 378.313 378.75C381.679 378.75 384.263 379.783 386.063 381.85C387.896 383.883 388.813 386.633 388.813 390.1ZM384.563 390.1C384.563 387.733 384.029 385.883 382.963 384.55C381.896 383.183 380.346 382.5 378.313 382.5C376.313 382.5 374.763 383.183 373.663 384.55C372.596 385.883 372.063 387.733 372.063 390.1V393.1C372.063 395.567 372.596 397.467 373.663 398.8C374.763 400.133 376.313 400.8 378.313 400.8C380.346 400.8 381.896 400.133 382.963 398.8C384.029 397.467 384.563 395.567 384.563 393.1V390.1ZM408.163 382.6C407.23 382.6 406.13 382.833 404.863 383.3C403.63 383.767 402.13 384.717 400.363 386.15V404H396.263V379.25H400.163V382.7C401.93 381.2 403.53 380.167 404.963 379.6C406.43 379.033 407.83 378.75 409.163 378.75C411.463 378.75 413.213 379.483 414.413 380.95C415.647 382.383 416.263 384.433 416.263 387.1V404H412.163V387.7C412.163 384.3 410.83 382.6 408.163 382.6ZM430.878 400.85C434.211 400.85 435.878 399.717 435.878 397.45C435.878 396.483 435.578 395.717 434.978 395.15C434.378 394.583 433.278 394.1 431.678 393.7L428.928 393C426.894 392.5 425.378 391.633 424.378 390.4C423.378 389.133 422.878 387.633 422.878 385.9C422.878 384.633 423.161 383.467 423.728 382.4C424.294 381.3 425.194 380.417 426.428 379.75C427.661 379.083 429.261 378.75 431.228 378.75C432.494 378.75 433.778 378.9 435.078 379.2C436.411 379.467 437.761 379.933 439.128 380.6L437.828 384.05C435.394 382.95 433.194 382.4 431.228 382.4C428.328 382.4 426.878 383.483 426.878 385.65C426.878 386.483 427.144 387.2 427.678 387.8C428.211 388.4 429.211 388.883 430.678 389.25L433.428 389.95C435.628 390.483 437.244 391.35 438.278 392.55C439.311 393.75 439.828 395.3 439.828 397.2C439.828 398.567 439.528 399.817 438.928 400.95C438.361 402.05 437.428 402.917 436.128 403.55C434.861 404.183 433.144 404.5 430.978 404.5C429.544 404.5 428.111 404.35 426.678 404.05C425.278 403.75 423.828 403.267 422.328 402.6L423.428 399.2C424.861 399.767 426.161 400.183 427.328 400.45C428.494 400.717 429.678 400.85 430.878 400.85ZM465.961 390.1V393.1C465.961 396.633 465.044 399.417 463.211 401.45C461.411 403.483 458.828 404.5 455.461 404.5C452.128 404.5 449.544 403.483 447.711 401.45C445.878 399.417 444.961 396.633 444.961 393.1V390.1C444.961 386.633 445.861 383.883 447.661 381.85C449.494 379.783 452.094 378.75 455.461 378.75C458.828 378.75 461.411 379.783 463.211 381.85C465.044 383.883 465.961 386.633 465.961 390.1ZM461.711 390.1C461.711 387.733 461.178 385.883 460.111 384.55C459.044 383.183 457.494 382.5 455.461 382.5C453.461 382.5 451.911 383.183 450.811 384.55C449.744 385.883 449.211 387.733 449.211 390.1V393.1C449.211 395.567 449.744 397.467 450.811 398.8C451.911 400.133 453.461 400.8 455.461 400.8C457.494 400.8 459.044 400.133 460.111 398.8C461.178 397.467 461.711 395.567 461.711 393.1V390.1ZM473.362 398V367H477.462V397.8C477.462 398.7 477.595 399.383 477.862 399.85C478.162 400.283 478.745 400.5 479.612 400.5H480.412V404.25H479.262C477.062 404.25 475.528 403.667 474.662 402.5C473.795 401.333 473.362 399.833 473.362 398ZM504.545 402.55C503.045 403.283 501.545 403.783 500.045 404.05C498.545 404.35 497.162 404.5 495.895 404.5C492.329 404.5 489.662 403.483 487.895 401.45C486.162 399.417 485.295 396.633 485.295 393.1V390.1C485.295 386.667 486.162 383.917 487.895 381.85C489.662 379.783 492.145 378.75 495.345 378.75C497.045 378.75 498.595 379.1 499.995 379.8C501.429 380.467 502.562 381.5 503.395 382.9C504.262 384.267 504.695 386.033 504.695 388.2C504.695 389.6 504.495 391.2 504.095 393H489.345V393.1C489.345 395.633 489.862 397.55 490.895 398.85C491.962 400.15 493.662 400.8 495.995 400.8C497.062 400.8 498.229 400.667 499.495 400.4C500.795 400.133 502.062 399.717 503.295 399.15L504.545 402.55ZM495.345 382.35C493.412 382.35 491.945 382.983 490.945 384.25C489.979 385.483 489.445 387.233 489.345 389.5H500.545C500.645 388.9 500.695 388.333 500.695 387.8C500.695 385.933 500.162 384.567 499.095 383.7C498.062 382.8 496.812 382.35 495.345 382.35Z" fill="white"/>
  <path d="M318.424 390.75C318.424 393.883 319.04 396.3 320.274 398C321.54 399.667 323.474 400.5 326.074 400.5C327.207 400.5 328.324 400.367 329.424 400.1C330.524 399.833 331.84 399.367 333.374 398.7L334.824 402.4C333.19 403.133 331.64 403.667 330.174 404C328.707 404.333 327.29 404.5 325.924 404.5C321.99 404.5 319.007 403.267 316.974 400.8C314.94 398.333 313.924 394.983 313.924 390.75V383.25C313.924 379.017 314.94 375.667 316.974 373.2C319.007 370.733 321.99 369.5 325.924 369.5C327.29 369.5 328.707 369.667 330.174 370C331.674 370.333 333.19 370.867 334.724 371.6L333.324 375.35C330.624 374.15 328.207 373.55 326.074 373.55C323.474 373.55 321.54 374.383 320.274 376.05C319.04 377.717 318.424 380.117 318.424 383.25V390.75Z" fill="#4FC08D"/>
  <path d="M162.25 100.25L155.9 125H151.15L145.95 104.7L140.6 125H135.85L129.55 100.25H133.75L136.25 110.6L138.5 120.85L143.85 100.25H148.2L153.55 120.95L155.75 110.65L158.2 100.25H162.25ZM180.091 103.6C179.158 103.6 178.058 103.833 176.791 104.3C175.558 104.767 174.058 105.717 172.291 107.15V125H168.191V88H172.291V103.55C174.024 102.083 175.591 101.083 176.991 100.55C178.391 100.017 179.758 99.75 181.091 99.75C183.391 99.75 185.141 100.483 186.341 101.95C187.574 103.383 188.191 105.433 188.191 108.1V125H184.091V108.7C184.091 105.3 182.758 103.6 180.091 103.6ZM216.355 111.1V114.1C216.355 117.633 215.439 120.417 213.605 122.45C211.805 124.483 209.222 125.5 205.855 125.5C202.522 125.5 199.939 124.483 198.105 122.45C196.272 120.417 195.355 117.633 195.355 114.1V111.1C195.355 107.633 196.255 104.883 198.055 102.85C199.889 100.783 202.489 99.75 205.855 99.75C209.222 99.75 211.805 100.783 213.605 102.85C215.439 104.883 216.355 107.633 216.355 111.1ZM212.105 111.1C212.105 108.733 211.572 106.883 210.505 105.55C209.439 104.183 207.889 103.5 205.855 103.5C203.855 103.5 202.305 104.183 201.205 105.55C200.139 106.883 199.605 108.733 199.605 111.1V114.1C199.605 116.567 200.139 118.467 201.205 119.8C202.305 121.133 203.855 121.8 205.855 121.8C207.889 121.8 209.439 121.133 210.505 119.8C211.572 118.467 212.105 116.567 212.105 114.1V111.1ZM241.906 125.25C240.373 125.25 239.14 124.9 238.206 124.2C237.306 123.5 236.673 122.633 236.306 121.6C234.673 123.033 233.19 124.05 231.856 124.65C230.523 125.217 229.19 125.5 227.856 125.5C225.69 125.5 224.09 124.8 223.056 123.4C222.023 122 221.506 120.283 221.506 118.25C221.506 116.883 221.756 115.667 222.256 114.6C222.756 113.533 223.606 112.7 224.806 112.1C226.006 111.467 227.623 111.15 229.656 111.15C230.556 111.15 231.54 111.217 232.606 111.35C233.673 111.45 234.756 111.583 235.856 111.75V108.4C235.856 106.533 235.44 105.267 234.606 104.6C233.806 103.9 232.623 103.55 231.056 103.55C228.923 103.55 226.54 104.133 223.906 105.3L222.606 101.9C224.14 101.2 225.606 100.667 227.006 100.3C228.406 99.9333 229.823 99.75 231.256 99.75C233.59 99.75 235.373 100.133 236.606 100.9C237.84 101.667 238.69 102.683 239.156 103.95C239.623 105.217 239.856 106.6 239.856 108.1V118.8C239.856 119.567 240.006 120.217 240.306 120.75C240.606 121.25 241.206 121.5 242.106 121.5H242.656V125.25H241.906ZM225.556 118.2C225.556 119.333 225.823 120.25 226.356 120.95C226.89 121.65 227.656 122 228.656 122C229.523 122 230.523 121.75 231.656 121.25C232.79 120.717 234.19 119.667 235.856 118.1V114.95C233.59 114.583 231.59 114.4 229.856 114.4C228.323 114.4 227.223 114.717 226.556 115.35C225.89 115.983 225.556 116.933 225.556 118.2ZM260.114 103.6C259.181 103.6 258.131 103.85 256.964 104.35C255.798 104.817 254.331 105.75 252.564 107.15V125H248.464V100.25H252.364V103.7C254.131 102.233 255.698 101.217 257.064 100.65C258.431 100.05 259.781 99.75 261.114 99.75C262.681 99.75 263.981 100.117 265.014 100.85C266.048 101.55 266.814 102.567 267.314 103.9C269.148 102.333 270.781 101.25 272.214 100.65C273.681 100.05 275.114 99.75 276.514 99.75C278.714 99.75 280.398 100.483 281.564 101.95C282.731 103.383 283.314 105.433 283.314 108.1V125H279.214V108.7C279.214 105.3 277.981 103.6 275.514 103.6C274.581 103.6 273.514 103.85 272.314 104.35C271.148 104.817 269.681 105.75 267.914 107.15C267.948 107.283 267.964 107.433 267.964 107.6C267.964 107.767 267.964 107.933 267.964 108.1V125H263.864V108.7C263.864 105.3 262.614 103.6 260.114 103.6ZM296.271 94.2H291.671V89.6H296.271V94.2ZM296.021 125H291.921V100.25H296.021V125ZM300.711 132.85V129.8H319.711V132.85H300.711Z" fill="#90E967"/>
  </svg>
  