<svg width="28" height="28" viewBox="0 0 28 28" fill="none" xmlns="http://www.w3.org/2000/svg">
  <path d="M27.0611 24.9386L21.1248 18.9998C22.9047 16.6804 23.7357 13.7708 23.4492 10.8613C23.1627 7.95169 21.7802 5.26004 19.5821 3.33231C17.3841 1.40459 14.535 0.385145 11.613 0.480777C8.69089 0.57641 5.9146 1.77996 3.84728 3.84728C1.77996 5.9146 0.57641 8.69089 0.480777 11.613C0.385145 14.535 1.40459 17.3841 3.33231 19.5821C5.26004 21.7802 7.95169 23.1627 10.8613 23.4492C13.7708 23.7357 16.6804 22.9047 18.9998 21.1248L24.9411 27.0673C25.0806 27.2069 25.2463 27.3175 25.4286 27.3931C25.6109 27.4686 25.8063 27.5074 26.0036 27.5074C26.2009 27.5074 26.3963 27.4686 26.5786 27.3931C26.7609 27.3175 26.9265 27.2069 27.0661 27.0673C27.2056 26.9278 27.3163 26.7622 27.3918 26.5798C27.4673 26.3975 27.5062 26.2022 27.5062 26.0048C27.5062 25.8075 27.4673 25.6121 27.3918 25.4298C27.3163 25.2475 27.2056 25.0819 27.0661 24.9423L27.0611 24.9386ZM3.49983 11.9998C3.49983 10.3187 3.99835 8.6753 4.93234 7.27748C5.86633 5.87966 7.19385 4.7902 8.74702 4.14685C10.3002 3.50351 12.0093 3.33518 13.6581 3.66315C15.3069 3.99113 16.8215 4.80068 18.0102 5.98942C19.199 7.17817 20.0085 8.69272 20.3365 10.3416C20.6645 11.9904 20.4961 13.6995 19.8528 15.2526C19.2095 16.8058 18.12 18.1333 16.7222 19.0673C15.3244 20.0013 13.681 20.4998 11.9998 20.4998C9.7462 20.4975 7.58554 19.6012 5.99198 18.0077C4.39842 16.4141 3.50215 14.2535 3.49983 11.9998Z" fill="#00C950"/>
  </svg>
  