<svg width="28" height="24" viewBox="0 0 28 24" fill="none" xmlns="http://www.w3.org/2000/svg">
<path d="M24.6665 21.3333V5.33333H3.33317V21.3333H24.6665ZM24.6665 0C25.3737 0 26.052 0.280951 26.5521 0.781048C27.0522 1.28115 27.3332 1.95942 27.3332 2.66667V21.3333C27.3332 22.0406 27.0522 22.7189 26.5521 23.219C26.052 23.719 25.3737 24 24.6665 24H3.33317C2.62593 24 1.94765 23.719 1.44755 23.219C0.947455 22.7189 0.666504 22.0406 0.666504 21.3333V2.66667C0.666504 1.95942 0.947455 1.28115 1.44755 0.781048C1.94765 0.280951 2.62593 0 3.33317 0H24.6665ZM15.3332 18.6667V16H21.9998V18.6667H15.3332ZM10.7732 13.3333L5.4265 8H9.19984L13.5998 12.4C14.1198 12.92 14.1198 13.7733 13.5998 14.2933L9.2265 18.6667H5.45317L10.7732 13.3333Z" fill="#00C950"/>
</svg>
